<svg xmlns="http://www.w3.org/2000/svg" width="400" height="520" viewBox="0 0 400 520" role="img" aria-labelledby="title desc">
  <title id="title">Shirin Neshat study card</title>
  <desc id="desc">Abstract study card with face, veil arc, and inscription-like marks.</desc>
  <rect width="400" height="520" fill="#efeee9"/>
  <rect x="44" y="48" width="312" height="424" rx="10" fill="#1f2020"/>
  <circle cx="200" cy="214" r="82" fill="#c9c2b5"/>
  <path d="M104 118c74-82 171-62 202 18 28 72-4 154-68 214" fill="none" stroke="#efeee9" stroke-width="26" opacity="0.86" stroke-linecap="round"/>
  <circle cx="170" cy="204" r="9" fill="#1f2020"/>
  <circle cx="232" cy="204" r="9" fill="#1f2020"/>
  <path d="M170 254c22 12 42 12 64 0" fill="none" stroke="#1f2020" stroke-width="7" stroke-linecap="round"/>
  <path d="M120 352h164M116 380h150M132 408h132" stroke="#efeee9" stroke-width="8" opacity="0.62" stroke-linecap="round"/>
  <path d="M138 338c10 9 20 9 30 0M188 366c10 9 20 9 30 0M240 394c10 9 20 9 30 0" fill="none" stroke="#efeee9" stroke-width="5" opacity="0.65" stroke-linecap="round"/>
</svg>
